<svg width="199" height="199" viewBox="0 0 199 199" fill="none" xmlns="http://www.w3.org/2000/svg">
<path d="M93.0477 198.202C90.4655 198.072 85.354 197.394 81.4443 196.662C73.9556 195.26 66.2359 192.842 59.5526 189.805C57.7372 188.98 53.9415 187.113 52.8189 186.492C48.3048 183.997 43.5681 180.942 40.2004 178.353C39.8102 178.053 39.2183 177.6 38.8853 177.346C35.2185 174.55 28.1425 167.828 25.0856 164.238C20.0527 158.327 16.367 153.006 12.7338 146.405C12.0967 145.248 10.0808 141.152 9.34492 139.519C5.55961 131.122 2.92371 121.719 1.62404 111.978C1.07102 107.833 0.92334 105.16 0.92334 99.292C0.92334 93.4344 1.07074 90.7603 1.62179 86.6056C2.73388 78.2236 4.91191 69.8575 7.92578 62.3911C9.09763 59.4882 11.3871 54.6251 12.7338 52.1786C14.6377 48.7198 16.164 46.26 18.8598 42.3062C20.0869 40.5065 22.8506 36.9749 25.115 34.3132C28.1368 30.7612 35.2308 24.0251 38.8853 21.2377C39.2183 20.9836 39.8102 20.5305 40.2004 20.2306C43.0501 18.0404 47.9059 14.85 51.2718 12.9563C53.0204 11.9726 53.4479 11.7476 55.7623 10.5933C64.0781 6.44569 72.0193 3.74917 81.0575 2.00401C83.8927 1.45656 85.4222 1.2246 90.6497 0.549142C92.7326 0.280002 107.013 0.28295 109.215 0.55209C120.55 1.94198 127.699 3.68443 136.71 7.25408C139.625 8.40848 144.576 10.7255 147.046 12.0909C151.614 14.6163 155.536 17.14 159.324 19.9912C160.122 20.5924 160.958 21.2209 161.18 21.388C164.418 23.8189 171.824 30.8726 174.75 34.3121C177.014 36.9739 179.778 40.5054 181.005 42.3052C183.701 46.259 185.227 48.7188 187.131 52.1775C187.768 53.3351 189.784 57.4312 190.52 59.0638C194.299 67.4476 196.943 76.8795 198.241 86.6046C198.794 90.7495 198.941 93.4232 198.941 99.2909C198.941 105.148 198.793 107.848 198.25 111.9C197.099 120.487 194.969 128.686 191.939 136.192C190.767 139.095 188.478 143.958 187.131 146.404C183.498 153.005 179.812 158.326 174.779 164.237C171.722 167.827 164.646 174.549 160.979 177.345C160.646 177.599 160.055 178.052 159.664 178.352C156.297 180.941 151.56 183.996 147.046 186.491C141.809 189.386 133.94 192.642 128.01 194.368C121.478 196.269 113.442 197.741 107.359 198.151C105.353 198.286 95.4242 198.321 93.0477 198.201V198.202ZM67.3881 153.712C67.8247 153.35 68.3699 152.828 68.5995 152.552L69.017 152.049L67.7328 150.618C67.0264 149.831 66.2781 148.997 66.0699 148.765L65.6913 148.344L66.8717 147.209C67.7079 146.405 68.1757 145.805 68.4757 145.155C69.4065 143.135 68.8672 140.924 66.9941 139.08C65.7984 137.903 64.8927 137.455 63.5494 137.377C61.6386 137.266 60.7238 137.758 57.8392 140.447C55.8116 142.337 55.6849 142.46 55.6849 142.536C55.6849 142.611 56.5864 143.631 59.8667 147.265C61.3584 148.917 63.4017 151.192 64.4074 152.319C65.4132 153.447 66.3166 154.369 66.4151 154.369C66.5134 154.369 66.9514 154.073 67.3881 153.712V153.712ZM63.0943 145.435C61.8412 144.121 60.3262 142.348 60.3262 142.194C60.3262 142.029 61.29 141.219 61.8245 140.935C62.7038 140.467 63.9639 140.982 64.8551 142.175C65.8076 143.45 65.7086 144.323 64.4765 145.512L63.7955 146.17L63.0943 145.435ZM76.3827 145.799C76.784 145.595 77.3739 145.173 77.6935 144.862C78.1725 144.396 78.247 144.245 78.1172 144.002C78.0307 143.841 77.7525 143.098 77.4988 142.353C77.15 141.327 77.0846 140.971 77.2301 140.89C77.3356 140.83 78.0835 140.292 78.8919 139.693C81.0799 138.073 80.9246 138.119 81.7913 138.849C83.2296 140.061 84.04 140.251 85.0508 139.613C85.6132 139.258 86.4814 138.279 86.4645 138.019C86.4531 137.828 73.5422 128.223 73.2986 128.223C73.0432 128.223 71.4588 129.259 70.6428 129.959L70.0519 130.466L72.629 138.2C74.0463 142.454 75.2388 145.987 75.2788 146.052C75.396 146.241 75.608 146.193 76.3829 145.799L76.3827 145.799ZM75.8804 137.979C75.8354 137.906 75.6661 137.439 75.5039 136.941C75.262 136.198 74.6751 134.659 73.8608 132.632C73.7402 132.332 73.7477 132.333 74.1094 132.65C74.3143 132.829 75.3526 133.693 76.4162 134.57C77.4799 135.446 78.3649 136.205 78.3828 136.255C78.4395 136.414 75.9662 138.12 75.8804 137.981V137.979ZM91.2924 135.562C91.8323 135.259 92.4282 134.859 92.6164 134.673L92.9588 134.334L91.5101 131.86L90.0613 129.386L90.781 128.962C91.9724 128.26 92.1445 128.327 94.5804 130.442C96.4786 132.091 96.8882 132.254 97.8801 131.757C98.66 131.365 99.3906 130.555 99.5482 129.906C99.6332 129.556 99.5874 129.485 99.2189 129.393C98.689 129.26 98.1623 128.897 96.7034 127.658C96.0762 127.126 95.1863 126.534 94.726 126.343C94.0916 126.08 93.914 125.938 93.9922 125.756C94.6786 124.155 94.676 122.91 93.9846 121.494C92.6142 118.693 89.9638 117.794 87.1881 119.188C85.7274 119.921 81.9874 122.224 81.9874 122.389C81.9874 122.479 82.5576 123.533 83.2546 124.731C85.1395 127.969 86.5364 130.384 87.8253 132.632C89.4251 135.423 89.8784 136.113 90.111 136.113C90.2217 136.113 90.7538 135.865 91.2938 135.562L91.2924 135.562ZM87.5167 124.972C86.9424 123.969 86.4725 123.076 86.4725 122.987C86.4725 122.898 86.9876 122.571 87.617 122.259C88.9973 121.577 89.4494 121.619 90.246 122.501C91.4155 123.795 91.3204 125.053 89.9859 125.937C88.4756 126.938 88.691 127.022 87.5166 124.972L87.5167 124.972ZM50.4116 132.485C51.5532 131.545 53.4677 129.98 54.6662 129.007C57.4352 126.76 58.996 125.426 59.0664 125.247C59.0967 125.17 58.9882 124.955 58.8249 124.77C58.662 124.584 58.428 124.282 58.3055 124.099C58.1831 123.915 57.5088 122.954 56.807 121.963C55.6379 120.311 53.6975 117.411 51.9391 114.686C46.9473 106.95 40.1718 94.2639 34.8761 82.7379C33.8792 80.568 33.038 78.7655 33.0068 78.7322C32.9766 78.6989 32.6277 78.9427 32.2336 79.2737C31.8395 79.6048 31.2879 80.0498 31.0077 80.2625C30.5005 80.6477 27.4352 83.1516 23.9465 86.0305L22.1124 87.544L22.3445 88.0804C22.4723 88.3755 22.6888 88.878 22.8256 89.1971C23.1896 90.0448 24.5502 93.0568 24.9748 93.9545C25.1762 94.3799 25.7978 95.6913 26.3566 96.8687C26.9154 98.0461 27.3726 99.0412 27.3726 99.08C27.3726 99.3577 33.3878 111.125 34.6594 113.335C35.0764 114.06 35.4176 114.674 35.4176 114.699C35.4176 114.74 36.8646 117.239 38.59 120.178C40.3495 123.175 43.1982 127.538 45.8449 131.289C46.7045 132.507 47.536 133.708 47.6929 133.958C47.8611 134.226 48.0512 134.367 48.157 134.303C48.2557 134.243 49.27 133.425 50.4116 132.485L50.4116 132.485ZM104.374 128.374C105.216 127.959 105.361 127.83 105.291 127.56C105.149 127.02 104.826 124.36 104.895 124.312C105.435 123.943 109.259 122.331 109.348 122.435C109.414 122.513 109.797 122.969 110.197 123.449C110.598 123.929 111.134 124.408 111.388 124.513C112.042 124.784 113.025 124.61 113.751 124.096C114.776 123.37 114.786 123.264 113.922 122.3C113.27 121.571 110.173 118.088 105.073 112.346L103.793 110.905L102.691 111.302C101.559 111.71 100.087 112.527 100.087 112.747C100.087 112.815 100.259 114.149 100.468 115.712C100.678 117.275 100.923 119.287 101.012 120.182C101.101 121.078 101.347 123.087 101.558 124.647C101.77 126.207 101.943 127.713 101.943 127.995C101.943 128.893 102.07 129.041 102.758 128.949C103.096 128.903 103.823 128.645 104.373 128.374H104.374ZM104.12 119.812C104.018 119.035 103.803 117.705 103.643 116.858C103.482 116.01 103.366 115.301 103.385 115.281C103.404 115.263 103.871 115.813 104.422 116.505C104.974 117.197 105.832 118.242 106.33 118.826C106.828 119.41 107.211 119.905 107.181 119.925C107.151 119.946 106.491 120.246 105.715 120.593L104.304 121.225L104.12 119.812ZM123.944 120.547C124.65 120.324 125.646 119.932 126.156 119.675C127.168 119.166 129.103 117.941 129.237 117.724C129.331 117.573 127.626 112.459 127.13 111.405C126.502 110.068 125.465 109.974 122.675 111L121.051 111.597L121.101 112.29C121.127 112.672 121.274 113.228 121.425 113.525C121.785 114.239 122.313 114.421 123.259 114.158C123.661 114.047 124.094 113.927 124.222 113.892C124.393 113.845 124.566 114.166 124.88 115.113C125.113 115.819 125.305 116.477 125.305 116.574C125.305 116.672 124.909 116.946 124.425 117.183C123.718 117.528 123.326 117.615 122.439 117.619C121.467 117.625 121.256 117.572 120.687 117.177C119.874 116.614 119.111 115.403 118.493 113.696C118.093 112.591 118.01 112.128 117.998 110.93C117.983 109.577 118.01 109.452 118.437 108.846C118.716 108.449 119.215 108.03 119.738 107.755C120.56 107.321 120.642 107.309 122.401 107.369L124.216 107.431L124.484 106.881C124.644 106.553 124.754 105.958 124.758 105.403L124.765 104.475L123.608 104.255C121.893 103.93 119.757 104.21 118.207 104.963C115.596 106.232 114.114 108.97 114.374 112.046C114.646 115.264 116.782 119.202 118.837 120.272C120.363 121.067 122.013 121.156 123.945 120.547L123.944 120.547ZM72.8741 117.633C84.2519 115.673 93.2816 108.504 94.924 100.126C95.2747 98.3371 95.2754 95.3557 94.9257 93.4508C94.5043 91.1556 93.251 87.9177 92.0707 86.0747C89.9606 82.7799 87.0077 80.6905 83.456 79.9791C81.5396 79.5953 80.2548 79.5377 77.1902 79.6979C75.0655 79.8091 73.6591 79.9485 68.1396 80.596C66.5279 80.785 64.7709 80.6863 63.6235 80.3422C61.3652 79.6647 60.401 76.196 61.7212 73.4985C63.6701 69.5164 70.7765 66.3616 76.9989 66.7162L78.7417 66.8153L78.7005 61.8967L78.6596 56.9782L75.0239 56.9869C71.1568 56.9986 69.933 57.1198 66.4546 57.8398C60.6431 59.0423 57.9007 60.4813 54.1379 64.3026C51.1992 67.2869 49.2569 70.5759 48.2318 74.3038C47.7378 76.1002 47.7212 76.2556 47.7193 79.0999C47.7176 81.6917 47.7601 82.2041 48.081 83.4318C48.6529 85.621 49.0127 86.5931 49.6631 87.7068C52.3795 92.3578 58.1093 94.5838 66.5921 94.2834C68.0387 94.2322 70.0576 94.0724 71.0787 93.9285C72.2558 93.7625 74.0111 93.6623 75.8748 93.6546C78.3708 93.6459 78.94 93.6863 79.6476 93.9329C81.3504 94.5259 82.2953 95.9605 82.2953 97.9529C82.2953 99.7233 81.5364 101.257 80.0977 102.394C78.126 103.953 75.8151 104.991 72.9353 105.612C71.2291 105.981 70.7748 106.013 67.327 106.016L63.5751 106.019L63.5752 107.657C63.5752 108.558 63.6213 111.185 63.6776 113.495L63.78 117.695L64.3354 117.799C66.7251 118.248 69.6226 118.19 72.8745 117.63L72.8741 117.633ZM140.904 115.615C142.227 115.11 143.521 114.027 144.007 113.017C144.757 111.459 144.705 109.831 143.787 106.099C143.132 103.438 142.233 99.7056 142.095 99.0778C142 98.6408 141.981 98.6334 141.194 98.7186C140.386 98.8058 138.799 99.249 138.56 99.4536C138.49 99.5141 138.607 100.251 138.82 101.091C139.034 101.931 139.453 103.628 139.751 104.862C141.243 111.038 141.247 111.072 140.636 112.075C140.13 112.904 138.452 113.307 137.519 112.825C136.661 112.381 136.389 111.671 135.21 106.792C134.594 104.241 134.03 102.04 133.956 101.9C133.882 101.76 133.596 101.457 133.321 101.225C132.886 100.859 132.729 100.816 132.119 100.894C131.022 101.034 130.256 101.297 130.256 101.535C130.256 101.654 130.71 103.618 131.263 105.898C131.817 108.179 132.375 110.479 132.503 111.01C133.019 113.161 134.034 114.722 135.398 115.464C136.536 116.083 136.855 116.151 138.379 116.096C139.443 116.058 140.039 115.945 140.905 115.615L140.904 115.615ZM151.916 113.171C152.271 112.991 152.32 112.832 152.519 111.245L152.735 109.515L153.447 109.423C153.838 109.373 154.921 109.212 155.853 109.066L157.547 108.801L158.192 110.127C158.568 110.9 159.004 111.562 159.239 111.715C159.808 112.088 160.824 112.041 161.777 111.598C162.738 111.151 162.814 111.54 161.044 107.879C160.344 106.432 159.404 104.483 158.954 103.547C158.504 102.611 157.54 100.609 156.813 99.0987L155.49 96.3525H154.718C153.897 96.3525 151.764 96.7518 151.575 96.941C151.469 97.0459 151.113 99.1556 149.895 106.873C149.633 108.532 149.319 110.492 149.197 111.227C148.822 113.497 148.759 113.371 150.252 113.368C150.97 113.367 151.698 113.281 151.915 113.171L151.916 113.171ZM153.243 105.906C153.424 104.61 153.773 101.214 153.776 100.708C153.779 100.214 153.879 100.368 154.559 101.922C154.988 102.901 155.432 103.954 155.548 104.264C155.663 104.573 155.873 105.05 156.014 105.323C156.155 105.596 156.241 105.848 156.204 105.885C156.134 105.955 153.669 106.408 153.356 106.409C153.238 106.409 153.198 106.23 153.243 105.906H153.243ZM170.841 110.905C171.167 110.829 171.465 110.736 171.504 110.698C171.542 110.659 171.489 109.517 171.389 108.159L171.205 105.69L171.857 103.612C172.217 102.47 172.759 100.735 173.063 99.7561C173.368 98.7775 173.82 97.3642 174.07 96.6152C174.612 94.9881 174.594 94.6419 173.962 94.462C173.385 94.2978 171.675 94.4533 171.36 94.6999C171.098 94.9039 170.032 98.3982 169.519 100.736L169.184 102.258L168.616 100.814C167.763 98.6429 166.352 95.8558 165.907 95.4627C165.605 95.1956 165.327 95.1154 164.71 95.118C163.792 95.121 162.591 95.5978 162.591 95.9575C162.591 96.089 163.698 98.3725 165.051 101.032L167.511 105.867L167.692 108.265C167.791 109.584 167.9 110.75 167.934 110.857C168.008 111.086 169.924 111.118 170.842 110.905L170.841 110.905ZM115.249 99.2657C119.756 97.5151 125.604 95.1688 126.902 94.5904C127.173 94.4698 127.794 94.1943 128.283 93.978C128.786 93.756 129.173 93.4856 129.173 93.357C129.173 93.2317 129.025 92.7927 128.845 92.3815C128.664 91.9703 128.358 91.2509 128.165 90.7829C127.972 90.3149 127.278 88.644 126.622 87.0698C124.835 82.7801 124.51 81.9921 122.306 76.5881C118.813 68.0242 115.376 59.4142 112.008 50.79C111.476 49.4285 110.781 47.6532 110.463 46.8448C110.145 46.0364 109.578 44.5832 109.202 43.6155C108.826 42.6478 108.433 41.8229 108.329 41.7824C108.125 41.7034 107.346 41.9566 104.651 42.9755C103.715 43.3295 102.671 43.7127 102.331 43.827C101.99 43.9414 100.876 44.3581 99.8552 44.753C98.8341 45.1479 97.3721 45.7009 96.6063 45.9819C92.1319 47.6234 91.2743 47.9278 91.1248 47.9278C91.0337 47.9278 90.9592 48.0147 90.9592 48.1212C90.9597 48.6182 95.2846 61.2776 96.9716 65.7196C98.7307 70.3518 99.2108 71.5945 99.5413 72.3722C99.7401 72.8402 100.27 74.1282 100.718 75.2344C101.79 77.8809 102.354 79.2463 102.624 79.8479C102.745 80.1185 103.101 80.9316 103.415 81.6549C105.867 87.3152 108.819 93.6289 111.352 98.6323C112.105 100.12 112.276 100.358 112.541 100.284C112.712 100.236 113.93 99.778 115.249 99.2657L115.249 99.2657ZM160.734 87.0723C166.103 86.8748 168.211 86.5628 170.879 85.5706C172.211 85.0753 172.12 85.3763 171.882 82.2575C171.802 81.2028 171.696 79.6088 171.648 78.7154C171.397 74.084 171.396 74.074 171.093 74.074C170.937 74.074 170.766 74.1436 170.713 74.2288C170.661 74.3137 170.361 74.3848 170.047 74.3862C169.733 74.3874 168.048 74.5613 166.304 74.7722C161.298 75.3773 159.177 75.2792 156.093 74.3003C152.639 73.2038 149.313 70.8164 146.952 67.7382C145.731 66.1456 144.568 63.7565 144.087 61.8519C143.644 60.0978 143.677 54.3278 144.142 52.3157C144.509 50.7274 145.299 49.05 146.066 48.2325C147.258 46.9621 149.252 46.0195 151.351 45.735C152.622 45.5629 158.443 45.651 159.149 45.8533C159.49 45.9511 159.497 45.927 159.498 44.6585C159.501 42.0697 159.14 35.627 158.987 35.5278C158.902 35.4726 158.129 35.2822 157.269 35.1051C151.137 33.8417 144.992 33.9722 140.902 35.4526C137.975 36.5122 136.31 37.5446 134.285 39.5557C131.132 42.6874 129.457 46.4003 128.624 52.1021C128.229 54.807 128.368 59.242 128.931 61.9295C130.296 68.4431 133.715 74.6299 138.554 79.3434C143.825 84.4774 149.544 87.1088 155.629 87.2002C156.267 87.2089 158.565 87.1524 160.735 87.0726L160.734 87.0723ZM24.8394 73.3141C28.4823 71.6094 31.2318 66.6608 31.2384 61.7968C31.2413 59.1972 30.6468 57.3902 29.3652 56.1085C28.4749 55.2182 27.6781 54.8973 26.348 54.8932C24.5355 54.8872 23.1497 55.5763 21.4765 57.3143C19.0671 59.817 17.7121 63.2832 17.7068 66.9573C17.7039 69.0529 18.0561 70.4175 18.9476 71.7646C19.498 72.5963 20.5206 73.4161 21.4165 73.744C22.219 74.0376 23.6874 73.8533 24.8394 73.3141V73.3141ZM95.0004 38.7334C96.3988 38.484 98.5981 37.6181 99.7121 36.8785C100.907 36.0854 102.48 34.4344 103.103 33.3194C104.458 30.8976 104.36 28.0356 102.848 25.8577C101.724 24.2388 100.304 23.1961 98.1701 22.424C94.8301 21.2154 91.2432 21.4771 87.7489 23.1842C84.4078 24.8165 82.1494 27.98 82.1426 31.0369C82.1408 32.0471 82.7571 33.9516 83.3794 34.8561C84.748 36.8454 87.3518 38.3723 90.1856 38.8475C91.0715 38.9961 93.9043 38.9292 95.0004 38.7334V38.7334Z" fill="white"/>
</svg>
